<?xml version="1.0" encoding="utf-8"?>
<!-- Generator: Adobe Illustrator 26.2.0, SVG Export Plug-In . SVG Version: 6.00 Build 0)  -->
<svg version="1.1"
	 id="svg8" inkscape:version="1.1.2 (0a00cf5339, 2022-02-04)" sodipodi:docname="linphone_logo.svg" xmlns:inkscape="http://www.inkscape.org/namespaces/inkscape" xmlns:sodipodi="http://sodipodi.sourceforge.net/DTD/sodipodi-0.dtd" xmlns:svg="http://www.w3.org/2000/svg"
	 xmlns="http://www.w3.org/2000/svg" xmlns:xlink="http://www.w3.org/1999/xlink" x="0px" y="0px" viewBox="0 0 512 512"
	 style="enable-background:new 0 0 512 512;" xml:space="preserve">
<style type="text/css">
	.st0{fill:url(#SVGID_1_);stroke:#231F20;stroke-miterlimit:10;}
	.st1{fill:#FFFFFF;}
</style>
<sodipodi:namedview  bordercolor="#666666" borderopacity="1.0" id="namedview10" inkscape:current-layer="svg8" inkscape:cx="256" inkscape:cy="255.69268" inkscape:pagecheckerboard="0" inkscape:pageopacity="0.0" inkscape:pageshadow="2" inkscape:window-height="1163" inkscape:window-maximized="1" inkscape:window-width="1920" inkscape:window-x="1920" inkscape:window-y="500" inkscape:zoom="1.6269531" pagecolor="#ffffff" showgrid="false">
	</sodipodi:namedview>
<radialGradient id="SVGID_1_" cx="164" cy="128" r="474.3047" gradientUnits="userSpaceOnUse">
	<stop  offset="2.596391e-07" style="stop-color:#0E5574"/>
	<stop  offset="0.1634" style="stop-color:#0D4663"/>
	<stop  offset="0.4971" style="stop-color:#0C2C47"/>
	<stop  offset="0.7873" style="stop-color:#0B1C35"/>
	<stop  offset="1" style="stop-color:#0B162F"/>
</radialGradient>
<path class="st0" d="M473,512H39c-21.5,0-39-17.5-39-39V39C0,17.5,17.5,0,39,0h434c21.5,0,39,17.5,39,39v434
	C512,494.5,494.5,512,473,512z"/>
<g>
	<path class="st1" d="M369,241.7c-25.3-2.5-39.9,14.6-53.3,32.9c-4.9,6.7-4.5,15.2-1.3,23c1.6,4,3.9,7.7,5.6,11.7
		c9.5,21.4,9.7,42.2-6.5,60.6c-16.3,18.4-36.3,27.6-61.5,21.4c-11.2-2.8-19.2-10.2-27-18c-41.6-41.6-83.1-83.3-124.9-124.7
		c-12.9-12.8-22.5-26.8-22.9-45.9c-0.5-25.6,10.5-44.3,33.3-55.5c20.8-10.2,48.7-5.5,66,11.1c23.2,22.4,45.8,45.5,68.6,68.2
		c3.3,3.3,6.5,6.6,9.9,9.8c18.9,17.7,38.8,14.8,51.7-7.7c6.9-12.1,7.9-25,5.8-38.6c-4.9-30.8,14.1-60.8,43.1-68.9
		c31.3-8.7,62.1,6,74.6,35.8C447.4,198.3,416.4,241.9,369,241.7z"/>
</g>
</svg>
